<svg xmlns="http://www.w3.org/2000/svg" width="300" height="300"><defs><clipPath id="a"><path d="M18 98h8v8h-8zM18 106h8v8h-8zM18 114h8v8h-8zM18 122h8v8h-8zM18 146h8v8h-8zM18 162h8v8h-8zM18 186h8v8h-8zM18 194h8v8h-8zM26 106h8v8h-8zM26 114h8v8h-8zM26 130h8v8h-8zM26 138h8v8h-8zM26 146h8v8h-8zM26 154h8v8h-8zM26 162h8v8h-8zM26 178h8v8h-8zM26 186h8v8h-8zM26 194h8v8h-8zM34 106h8v8h-8zM34 122h8v8h-8zM34 130h8v8h-8zM34 138h8v8h-8zM34 146h8v8h-8zM34 162h8v8h-8zM34 170h8v8h-8zM34 186h8v8h-8zM34 202h8v8h-8zM42 82h8v8h-8zM42 130h8v8h-8zM42 138h8v8h-8zM42 162h8v8h-8zM42 178h8v8h-8zM42 186h8v8h-8zM42 202h8v8h-8zM42 210h8v8h-8zM50 98h8v8h-8zM50 106h8v8h-8zM50 122h8v8h-8zM50 130h8v8h-8zM50 138h8v8h-8zM50 146h8v8h-8zM50 154h8v8h-8zM50 162h8v8h-8zM50 170h8v8h-8zM50 178h8v8h-8zM50 186h8v8h-8zM50 210h8v8h-8zM58 82h8v8h-8zM58 122h8v8h-8zM58 130h8v8h-8zM58 138h8v8h-8zM58 154h8v8h-8zM58 178h8v8h-8zM58 194h8v8h-8zM58 210h8v8h-8zM66 82h8v8h-8zM66 98h8v8h-8zM66 114h8v8h-8zM66 130h8v8h-8zM66 146h8v8h-8zM66 162h8v8h-8zM66 178h8v8h-8zM66 194h8v8h-8zM66 210h8v8h-8zM74 82h8v8h-8zM74 106h8v8h-8zM74 130h8v8h-8zM74 194h8v8h-8zM82 26h8v8h-8zM82 34h8v8h-8zM82 66h8v8h-8zM82 90h8v8h-8zM82 114h8v8h-8zM82 138h8v8h-8zM82 162h8v8h-8zM82 170h8v8h-8zM82 178h8v8h-8zM82 210h8v8h-8zM82 226h8v8h-8zM82 234h8v8h-8zM82 250h8v8h-8zM90 34h8v8h-8zM90 42h8v8h-8zM90 82h8v8h-8zM90 114h8v8h-8zM90 122h8v8h-8zM90 170h8v8h-8zM90 178h8v8h-8zM90 202h8v8h-8zM90 210h8v8h-8zM90 226h8v8h-8zM90 250h8v8h-8zM90 266h8v8h-8zM90 274h8v8h-8zM98 18h8v8h-8zM98 26h8v8h-8zM98 34h8v8h-8zM98 42h8v8h-8zM98 50h8v8h-8zM98 58h8v8h-8zM98 66h8v8h-8zM98 82h8v8h-8zM98 122h8v8h-8zM98 146h8v8h-8zM98 154h8v8h-8zM98 162h8v8h-8zM98 170h8v8h-8zM98 186h8v8h-8zM98 194h8v8h-8zM98 202h8v8h-8zM98 210h8v8h-8zM98 218h8v8h-8zM98 250h8v8h-8zM98 258h8v8h-8zM98 274h8v8h-8zM106 42h8v8h-8zM106 98h8v8h-8zM106 106h8v8h-8zM106 122h8v8h-8zM106 162h8v8h-8zM106 170h8v8h-8zM106 178h8v8h-8zM106 194h8v8h-8zM106 218h8v8h-8zM106 234h8v8h-8zM106 242h8v8h-8zM106 250h8v8h-8zM114 18h8v8h-8zM114 34h8v8h-8zM114 58h8v8h-8zM114 66h8v8h-8zM114 74h8v8h-8zM114 98h8v8h-8zM114 114h8v8h-8zM114 130h8v8h-8zM114 154h8v8h-8zM114 162h8v8h-8zM114 170h8v8h-8zM114 178h8v8h-8zM114 194h8v8h-8zM114 202h8v8h-8zM114 218h8v8h-8zM114 226h8v8h-8zM114 234h8v8h-8zM114 242h8v8h-8zM114 266h8v8h-8zM114 274h8v8h-8zM122 26h8v8h-8zM122 42h8v8h-8zM122 50h8v8h-8zM122 74h8v8h-8zM122 82h8v8h-8zM122 90h8v8h-8zM122 114h8v8h-8zM122 138h8v8h-8zM122 154h8v8h-8zM122 162h8v8h-8zM122 178h8v8h-8zM122 194h8v8h-8zM122 202h8v8h-8zM122 218h8v8h-8zM122 226h8v8h-8zM122 234h8v8h-8zM122 266h8v8h-8zM122 274h8v8h-8zM130 18h8v8h-8zM130 34h8v8h-8zM130 50h8v8h-8zM130 58h8v8h-8zM130 66h8v8h-8zM130 82h8v8h-8zM130 90h8v8h-8zM130 106h8v8h-8zM130 114h8v8h-8zM130 146h8v8h-8zM130 154h8v8h-8zM130 178h8v8h-8zM130 194h8v8h-8zM130 202h8v8h-8zM130 242h8v8h-8zM130 250h8v8h-8zM130 258h8v8h-8zM130 274h8v8h-8zM138 26h8v8h-8zM138 34h8v8h-8zM138 42h8v8h-8zM138 50h8v8h-8zM138 58h8v8h-8zM138 74h8v8h-8zM138 82h8v8h-8zM138 106h8v8h-8zM138 114h8v8h-8zM138 130h8v8h-8zM138 138h8v8h-8zM138 170h8v8h-8zM138 178h8v8h-8zM138 194h8v8h-8zM138 218h8v8h-8zM138 226h8v8h-8zM146 26h8v8h-8zM146 34h8v8h-8zM146 42h8v8h-8zM146 58h8v8h-8zM146 66h8v8h-8zM146 82h8v8h-8zM146 106h8v8h-8zM146 114h8v8h-8zM146 130h8v8h-8zM146 226h8v8h-8zM146 234h8v8h-8zM146 250h8v8h-8zM146 266h8v8h-8zM154 26h8v8h-8zM154 34h8v8h-8zM154 50h8v8h-8zM154 58h8v8h-8zM154 74h8v8h-8zM154 114h8v8h-8zM154 122h8v8h-8zM154 130h8v8h-8zM154 146h8v8h-8zM154 154h8v8h-8zM154 162h8v8h-8zM154 170h8v8h-8zM154 178h8v8h-8zM154 202h8v8h-8zM154 210h8v8h-8zM154 218h8v8h-8zM154 226h8v8h-8zM154 250h8v8h-8zM154 266h8v8h-8zM154 274h8v8h-8zM162 26h8v8h-8zM162 42h8v8h-8zM162 50h8v8h-8zM162 58h8v8h-8zM162 66h8v8h-8zM162 82h8v8h-8zM162 90h8v8h-8zM162 98h8v8h-8zM162 114h8v8h-8zM162 122h8v8h-8zM162 130h8v8h-8zM162 146h8v8h-8zM162 162h8v8h-8zM162 170h8v8h-8zM162 178h8v8h-8zM162 202h8v8h-8zM162 226h8v8h-8zM162 234h8v8h-8zM162 250h8v8h-8zM162 258h8v8h-8zM162 274h8v8h-8zM170 18h8v8h-8zM170 34h8v8h-8zM170 50h8v8h-8zM170 74h8v8h-8zM170 98h8v8h-8zM170 106h8v8h-8zM170 114h8v8h-8zM170 122h8v8h-8zM170 130h8v8h-8zM170 138h8v8h-8zM170 146h8v8h-8zM170 162h8v8h-8zM170 170h8v8h-8zM170 178h8v8h-8zM170 218h8v8h-8zM170 242h8v8h-8zM170 250h8v8h-8zM170 266h8v8h-8zM178 18h8v8h-8zM178 26h8v8h-8zM178 50h8v8h-8zM178 58h8v8h-8zM178 66h8v8h-8zM178 74h8v8h-8zM178 90h8v8h-8zM178 114h8v8h-8zM178 122h8v8h-8zM178 138h8v8h-8zM178 154h8v8h-8zM178 162h8v8h-8zM178 194h8v8h-8zM178 218h8v8h-8zM178 226h8v8h-8zM178 266h8v8h-8zM178 274h8v8h-8zM186 50h8v8h-8zM186 74h8v8h-8zM186 82h8v8h-8zM186 98h8v8h-8zM186 106h8v8h-8zM186 130h8v8h-8zM186 154h8v8h-8zM186 162h8v8h-8zM186 194h8v8h-8zM186 202h8v8h-8zM186 218h8v8h-8zM186 226h8v8h-8zM186 250h8v8h-8zM186 258h8v8h-8zM186 274h8v8h-8zM194 18h8v8h-8zM194 26h8v8h-8zM194 34h8v8h-8zM194 42h8v8h-8zM194 66h8v8h-8zM194 74h8v8h-8zM194 82h8v8h-8zM194 114h8v8h-8zM194 122h8v8h-8zM194 130h8v8h-8zM194 170h8v8h-8zM194 186h8v8h-8zM194 194h8v8h-8zM194 202h8v8h-8zM194 210h8v8h-8zM194 218h8v8h-8zM194 226h8v8h-8zM194 274h8v8h-8zM202 42h8v8h-8zM202 58h8v8h-8zM202 74h8v8h-8zM202 82h8v8h-8zM202 90h8v8h-8zM202 130h8v8h-8zM202 154h8v8h-8zM202 194h8v8h-8zM202 202h8v8h-8zM202 218h8v8h-8zM202 226h8v8h-8zM202 250h8v8h-8zM210 18h8v8h-8zM210 26h8v8h-8zM210 34h8v8h-8zM210 42h8v8h-8zM210 50h8v8h-8zM210 58h8v8h-8zM210 66h8v8h-8zM210 82h8v8h-8zM210 98h8v8h-8zM210 114h8v8h-8zM210 122h8v8h-8zM210 130h8v8h-8zM210 154h8v8h-8zM210 162h8v8h-8zM210 170h8v8h-8zM210 178h8v8h-8zM210 210h8v8h-8zM210 218h8v8h-8zM210 226h8v8h-8zM210 234h8v8h-8zM210 242h8v8h-8zM210 258h8v8h-8zM210 266h8v8h-8zM218 82h8v8h-8zM218 98h8v8h-8zM218 106h8v8h-8zM218 114h8v8h-8zM218 122h8v8h-8zM218 138h8v8h-8zM218 162h8v8h-8zM218 170h8v8h-8zM218 194h8v8h-8zM218 202h8v8h-8zM218 210h8v8h-8zM218 242h8v8h-8zM218 274h8v8h-8zM226 98h8v8h-8zM226 130h8v8h-8zM226 146h8v8h-8zM226 154h8v8h-8zM226 170h8v8h-8zM226 178h8v8h-8zM226 210h8v8h-8zM226 226h8v8h-8zM226 242h8v8h-8zM226 250h8v8h-8zM226 258h8v8h-8zM226 274h8v8h-8zM234 114h8v8h-8zM234 122h8v8h-8zM234 138h8v8h-8zM234 146h8v8h-8zM234 154h8v8h-8zM234 162h8v8h-8zM234 178h8v8h-8zM234 194h8v8h-8zM234 202h8v8h-8zM234 210h8v8h-8zM234 242h8v8h-8zM234 250h8v8h-8zM234 274h8v8h-8zM242 90h8v8h-8zM242 122h8v8h-8zM242 130h8v8h-8zM242 146h8v8h-8zM242 154h8v8h-8zM242 170h8v8h-8zM242 178h8v8h-8zM242 186h8v8h-8zM242 194h8v8h-8zM242 202h8v8h-8zM242 210h8v8h-8zM242 218h8v8h-8zM242 226h8v8h-8zM242 234h8v8h-8zM242 242h8v8h-8zM250 98h8v8h-8zM250 106h8v8h-8zM250 114h8v8h-8zM250 122h8v8h-8zM250 146h8v8h-8zM250 154h8v8h-8zM250 162h8v8h-8zM250 178h8v8h-8zM250 202h8v8h-8zM250 210h8v8h-8zM250 218h8v8h-8zM250 234h8v8h-8zM250 242h8v8h-8zM250 274h8v8h-8zM258 82h8v8h-8zM258 106h8v8h-8zM258 122h8v8h-8zM258 178h8v8h-8zM258 194h8v8h-8zM258 202h8v8h-8zM258 218h8v8h-8zM258 234h8v8h-8zM258 242h8v8h-8zM258 250h8v8h-8zM258 258h8v8h-8zM258 266h8v8h-8zM258 274h8v8h-8zM266 82h8v8h-8zM266 114h8v8h-8zM266 122h8v8h-8zM266 138h8v8h-8zM266 146h8v8h-8zM266 154h8v8h-8zM266 162h8v8h-8zM266 170h8v8h-8zM266 178h8v8h-8zM266 202h8v8h-8zM266 234h8v8h-8zM266 242h8v8h-8zM274 90h8v8h-8zM274 106h8v8h-8zM274 122h8v8h-8zM274 162h8v8h-8zM274 178h8v8h-8zM274 210h8v8h-8zM274 218h8v8h-8zM274 226h8v8h-8zM274 234h8v8h-8zM274 242h8v8h-8zM274 274h8v8h-8zM18 18h8v8h-8zM18 26h8v8h-8zM18 34h8v8h-8zM18 42h8v8h-8zM18 50h8v8h-8zM18 58h8v8h-8zM18 66h8v8h-8zM26 18h8v8h-8zM26 66h8v8h-8zM34 18h8v8h-8zM34 66h8v8h-8zM42 18h8v8h-8zM42 66h8v8h-8zM50 18h8v8h-8zM50 66h8v8h-8zM58 18h8v8h-8zM58 66h8v8h-8zM66 18h8v8h-8zM66 26h8v8h-8zM66 34h8v8h-8zM66 42h8v8h-8zM66 50h8v8h-8zM66 58h8v8h-8zM66 66h8v8h-8zM34 34h8v8h-8zM34 42h8v8h-8zM34 50h8v8h-8zM42 34h8v8h-8zM42 42h8v8h-8zM42 50h8v8h-8zM50 34h8v8h-8zM50 42h8v8h-8zM50 50h8v8h-8zM226 18h8v8h-8zM226 26h8v8h-8zM226 34h8v8h-8zM226 42h8v8h-8zM226 50h8v8h-8zM226 58h8v8h-8zM226 66h8v8h-8zM234 18h8v8h-8zM234 66h8v8h-8zM242 18h8v8h-8zM242 66h8v8h-8zM250 18h8v8h-8zM250 66h8v8h-8zM258 18h8v8h-8zM258 66h8v8h-8zM266 18h8v8h-8zM266 66h8v8h-8zM274 18h8v8h-8zM274 26h8v8h-8zM274 34h8v8h-8zM274 42h8v8h-8zM274 50h8v8h-8zM274 58h8v8h-8zM274 66h8v8h-8zM242 34h8v8h-8zM242 42h8v8h-8zM242 50h8v8h-8zM250 34h8v8h-8zM250 42h8v8h-8zM250 50h8v8h-8zM258 34h8v8h-8zM258 42h8v8h-8zM258 50h8v8h-8zM18 226h8v8h-8zM18 234h8v8h-8zM18 242h8v8h-8zM18 250h8v8h-8zM18 258h8v8h-8zM18 266h8v8h-8zM18 274h8v8h-8zM26 226h8v8h-8zM26 274h8v8h-8zM34 226h8v8h-8zM34 274h8v8h-8zM42 226h8v8h-8zM42 274h8v8h-8zM50 226h8v8h-8zM50 274h8v8h-8zM58 226h8v8h-8zM58 274h8v8h-8zM66 226h8v8h-8zM66 234h8v8h-8zM66 242h8v8h-8zM66 250h8v8h-8zM66 258h8v8h-8zM66 266h8v8h-8zM66 274h8v8h-8zM34 242h8v8h-8zM34 250h8v8h-8zM34 258h8v8h-8zM42 242h8v8h-8zM42 250h8v8h-8zM42 258h8v8h-8zM50 242h8v8h-8zM50 250h8v8h-8zM50 258h8v8h-8z"/></clipPath></defs><path clip-path="url('#clip-path-background-color')" fill="#FFF" d="M0 0h300v300H0z"/><path clip-path="url('#a')" d="M0 0h300v300H0z"/></svg>